<svg width="24" height="24" viewBox="0 0 24 24" fill="none" xmlns="http://www.w3.org/2000/svg">
<g clip-path="url(#clip0_10067_20295)">
<path d="M12.3163 3.0705C12.2171 3.02436 12.1091 3.00045 11.9998 3.00045C11.8904 3.00045 11.7824 3.02436 11.6833 3.0705L0.433272 8.3205C0.300796 8.38233 0.18928 8.48154 0.112439 8.60591C0.0355978 8.73029 -0.00321732 8.87441 0.00076694 9.02055C0.0047512 9.16669 0.0513611 9.30849 0.134864 9.42849C0.218368 9.54849 0.335123 9.64148 0.470772 9.696L11.7208 14.196C11.8998 14.2678 12.0997 14.2678 12.2788 14.196L20.9998 10.71V19.5C20.6019 19.5 20.2204 19.658 19.9391 19.9393C19.6578 20.2206 19.4998 20.6022 19.4998 21V24H23.9998V21C23.9998 20.6022 23.8417 20.2206 23.5604 19.9393C23.2791 19.658 22.8976 19.5 22.4998 19.5V10.1085L23.5288 9.696C23.6644 9.64148 23.7812 9.54849 23.8647 9.42849C23.9482 9.30849 23.9948 9.16669 23.9988 9.02055C24.0028 8.87441 23.9639 8.73029 23.8871 8.60591C23.8103 8.48154 23.6987 8.38233 23.5663 8.3205L12.3163 3.0705ZM11.9998 12.69L2.63677 8.9475L11.9998 4.578L21.3628 8.9475L11.9998 12.69Z" fill="black"/>
<path d="M6.26386 13.548C6.16728 13.5116 6.06424 13.4956 5.96117 13.5008C5.85811 13.5061 5.75723 13.5326 5.66487 13.5786C5.57251 13.6247 5.49064 13.6893 5.4244 13.7684C5.35815 13.8475 5.30894 13.9395 5.27986 14.0385L4.52986 16.5885C4.47733 16.7675 4.4934 16.9597 4.57494 17.1275C4.65649 17.2953 4.79765 17.4267 4.97086 17.496L11.7209 20.196C11.8999 20.2678 12.0998 20.2678 12.2789 20.196L19.0289 17.496C19.2021 17.4267 19.3432 17.2953 19.4248 17.1275C19.5063 16.9597 19.5224 16.7675 19.4699 16.5885L18.7199 14.0385C18.6908 13.9395 18.6416 13.8475 18.5753 13.7684C18.5091 13.6893 18.4272 13.6247 18.3348 13.5786C18.2425 13.5326 18.1416 13.5061 18.0385 13.5008C17.9355 13.4956 17.8324 13.5116 17.7359 13.548L11.9999 15.699L6.26386 13.548ZM6.16186 16.3575L6.49186 15.2355L11.7359 17.202C11.906 17.266 12.0937 17.266 12.2639 17.202L17.5079 15.2355L17.8379 16.3575L11.9999 18.69L6.16186 16.3575Z" fill="black"/>
</g>
<defs>
<clipPath id="clip0_10067_20295">
<rect width="24" height="24" fill="white"/>
</clipPath>
</defs>
</svg>
