<svg width="24" height="24" viewBox="0 0 24 24" fill="none" xmlns="http://www.w3.org/2000/svg">
<path fill-rule="evenodd" clip-rule="evenodd" d="M12.48 11.6024L15.5928 14.7152L14.9144 15.3944L11.52 12V7.2H12.48V11.6024ZM12 20C7.5816 20 4 16.4184 4 12C4 7.5816 7.5816 4 12 4C16.4184 4 20 7.5816 20 12C20 16.4184 16.4184 20 12 20ZM12 19.04C13.8671 19.04 15.6578 18.2983 16.978 16.978C18.2983 15.6578 19.04 13.8671 19.04 12C19.04 10.1329 18.2983 8.34222 16.978 7.02197C15.6578 5.70171 13.8671 4.96 12 4.96C10.1329 4.96 8.34222 5.70171 7.02197 7.02197C5.70171 8.34222 4.96 10.1329 4.96 12C4.96 13.8671 5.70171 15.6578 7.02197 16.978C8.34222 18.2983 10.1329 19.04 12 19.04Z" fill="#F6F6F6"/>
</svg>