<svg width="24" height="24" viewBox="0 0 24 24" fill="none" xmlns="http://www.w3.org/2000/svg">
<path d="M6.59998 3.6C5.80433 3.6 5.04126 3.91607 4.47866 4.47868C3.91605 5.04129 3.59998 5.80435 3.59998 6.6V17.4C3.59998 18.1956 3.91605 18.9587 4.47866 19.5213C5.04126 20.0839 5.80433 20.4 6.59998 20.4H17.4C18.1956 20.4 18.9587 20.0839 19.5213 19.5213C20.0839 18.9587 20.4 18.1956 20.4 17.4V6.6C20.4 5.80435 20.0839 5.04129 19.5213 4.47868C18.9587 3.91607 18.1956 3.6 17.4 3.6H6.59998ZM4.79998 6.6C4.79998 6.12261 4.98962 5.66477 5.32718 5.32721C5.66475 4.98964 6.12259 4.8 6.59998 4.8H17.4C17.8774 4.8 18.3352 4.98964 18.6728 5.32721C19.0103 5.66477 19.2 6.12261 19.2 6.6V17.4C19.2 17.8774 19.0103 18.3352 18.6728 18.6728C18.3352 19.0104 17.8774 19.2 17.4 19.2H6.59998C6.12259 19.2 5.66475 19.0104 5.32718 18.6728C4.98962 18.3352 4.79998 17.8774 4.79998 17.4V6.6ZM8.39998 7.8C8.39998 7.64087 8.33676 7.48826 8.22424 7.37573C8.11172 7.26321 7.95911 7.2 7.79998 7.2C7.64085 7.2 7.48823 7.26321 7.37571 7.37573C7.26319 7.48826 7.19998 7.64087 7.19998 7.8V9C7.19998 9.15913 7.26319 9.31174 7.37571 9.42426C7.48823 9.53678 7.64085 9.6 7.79998 9.6C7.95911 9.6 8.11172 9.53678 8.22424 9.42426C8.33676 9.31174 8.39998 9.15913 8.39998 9V7.8ZM7.79998 10.8C7.95911 10.8 8.11172 10.8632 8.22424 10.9757C8.33676 11.0883 8.39998 11.2409 8.39998 11.4V12.6C8.39998 12.7591 8.33676 12.9117 8.22424 13.0243C8.11172 13.1368 7.95911 13.2 7.79998 13.2C7.64085 13.2 7.48823 13.1368 7.37571 13.0243C7.26319 12.9117 7.19998 12.7591 7.19998 12.6V11.4C7.19998 11.2409 7.26319 11.0883 7.37571 10.9757C7.48823 10.8632 7.64085 10.8 7.79998 10.8V10.8ZM8.39998 15C8.39998 14.8409 8.33676 14.6883 8.22424 14.5757C8.11172 14.4632 7.95911 14.4 7.79998 14.4C7.64085 14.4 7.48823 14.4632 7.37571 14.5757C7.26319 14.6883 7.19998 14.8409 7.19998 15V16.2C7.19998 16.3591 7.26319 16.5117 7.37571 16.6243C7.48823 16.7368 7.64085 16.8 7.79998 16.8C7.95911 16.8 8.11172 16.7368 8.22424 16.6243C8.33676 16.5117 8.39998 16.3591 8.39998 16.2V15Z" fill="black"/>
</svg>
